<svg width="178" height="177" viewBox="0 0 178 177" fill="none" xmlns="http://www.w3.org/2000/svg">
<path opacity="0.24" d="M69.2881 142.422C60.6917 103.6 6.53766 101.34 23.0405 65.6257C35.9847 29.5191 79.0938 15.1967 111.855 23.6865C144.616 32.1764 174.036 76.5062 153.794 112.501C133.552 148.495 77.8846 181.245 69.2881 142.422Z" fill="#98D7AA"/>
<path d="M18.0458 127.72C17.365 124.693 19.2667 121.687 22.2935 121.006L46.3832 115.588C49.41 114.907 52.4156 116.809 53.0964 119.835C53.7772 122.862 51.8755 125.868 48.8488 126.549L24.759 131.967C21.7323 132.648 18.7267 130.746 18.0458 127.72Z" fill="#007E34"/>
<path d="M140.169 33.8201L54.7536 51.1436C48.8813 52.3345 45.1045 58.1028 46.2955 63.975L59.2347 128.047C60.4257 133.919 66.2047 137.75 72.077 136.559L157.492 119.235C163.364 118.044 167.195 112.265 166.004 106.393L153.011 42.3316C151.82 36.4593 146.041 32.6292 140.169 33.8201ZM155.327 108.558L69.9116 125.882L59.0844 72.4973L107.206 90.5278L144.5 55.1739L155.327 108.558ZM105.04 79.8509L56.919 61.8204L142.334 44.497L105.04 79.8509Z" fill="#007E34"/>
<path d="M25.1036 92.7582C24.4733 89.7205 26.4249 86.7471 29.4626 86.1168L40.4631 83.8345C43.5008 83.2042 46.4742 85.1559 47.1044 88.1935C47.7347 91.2312 45.7831 94.2047 42.7454 94.8349L31.7449 97.1172C28.7073 97.7475 25.7338 95.7959 25.1036 92.7582Z" fill="#007E34"/>
<path d="M10.8965 112.4C10.2156 109.373 12.1173 106.367 15.1441 105.686L39.2339 100.268C42.2606 99.5868 45.2662 101.489 45.947 104.515C46.6279 107.542 44.7261 110.548 41.6994 111.228L17.6096 116.647C14.5829 117.328 11.5773 115.426 10.8965 112.4Z" fill="#007E34"/>
</svg>
