<svg width="200" height="192" viewBox="0 0 200 192" fill="none" xmlns="http://www.w3.org/2000/svg">
<path opacity="0.24" d="M75.8626 163.724C59.715 158.314 12.859 155.062 22.7171 75.473C34.2576 27.2785 87.1307 17.5224 124.778 27.2785C162.426 37.0347 185.948 88.8707 172.973 129.339C159.997 169.808 92.0102 169.133 75.8626 163.724Z" fill="#98D7AA"/>
<path d="M127.475 66.4387L88.4077 105.506L67.1252 84.2828L58.7663 92.6417L88.4077 122.283L135.834 74.8568L127.475 66.4387ZM100.264 33.3589C67.5401 33.3589 40.9814 59.9176 40.9814 92.6417C40.9814 125.366 67.5401 151.924 100.264 151.924C132.988 151.924 159.547 125.366 159.547 92.6417C159.547 59.9176 132.988 33.3589 100.264 33.3589ZM100.264 140.068C74.0612 140.068 52.838 118.845 52.838 92.6417C52.838 66.4387 74.0612 45.2154 100.264 45.2154C126.467 45.2154 147.69 66.4387 147.69 92.6417C147.69 118.845 126.467 140.068 100.264 140.068Z" fill="#007E34"/>
</svg>
