<svg width="30" height="24" viewBox="0 0 30 24" fill="none" xmlns="http://www.w3.org/2000/svg">
<g clip-path="url(#clip0_36_1075)">
<path d="M16.3154 22.4568C16.7913 22.8818 17.2556 23.2963 17.7083 23.7002C18.3466 24.2736 19.0817 23.9117 19.3726 22.9378C20.1397 20.334 20.8631 17.7775 21.4901 15.2702C20.8077 15.8824 20.1295 16.496 19.4555 17.1108L16.3154 22.4568ZM4.05546 6.03544C3.00195 6.44874 1.94165 6.86098 0.874572 7.27215C-0.0866284 7.64364 -0.292401 8.36971 0.441724 8.93285C3.14828 11.0175 6.04791 13.4442 8.88117 15.8949C8.64101 15.0269 8.41207 14.1652 8.19436 13.3097C6.65582 10.7673 5.21015 8.31457 4.05546 6.03544ZM23.6597 1.35559C23.6805 0.490611 23.015 -0.125189 22.2017 0.0216998C20.1174 0.397978 17.941 0.987128 15.6933 1.70897C18.3459 1.73866 20.9944 1.92465 23.6251 2.26596L23.6597 1.35559Z" fill="#27AAE1"/>
<path d="M7.65383 0.161984C6.84063 0.0359194 6.18853 0.653554 6.22882 1.50185L6.2747 2.27348C8.92312 1.9276 11.5897 1.73913 14.2605 1.70906C11.9828 1.03254 9.77426 0.491027 7.65383 0.161984ZM8.88144 15.895C9.50833 18.1584 10.2054 20.4632 10.9292 22.8064C11.2307 23.7707 11.9584 24.1063 12.58 23.5143C12.9328 23.1802 13.2937 22.839 13.6629 22.4907C12.7336 20.8329 11.748 19.171 10.7545 17.5259C10.1352 16.9833 9.5108 16.4397 8.88144 15.895Z" fill="#FFE300"/>
<path d="M28.8698 6.88456C27.9116 6.53174 26.9588 6.17764 26.0115 5.82227C24.918 8.00549 23.5483 10.3524 22.0806 12.7873C21.8955 13.6096 21.6987 14.4372 21.4901 15.2701C24.1462 12.8865 26.8449 10.5467 29.3471 8.52483C30.0527 7.95762 29.8258 7.23889 28.8698 6.88456ZM8.19434 13.3102C8.41146 14.1656 8.6404 15.0273 8.88115 15.8953C9.50998 16.4389 10.1343 16.9826 10.7542 17.5262L8.19434 13.3102Z" fill="#FFE300"/>
<path d="M19.4561 17.1107C20.1287 16.4973 20.8069 15.8837 21.4906 15.2701C21.6989 14.4369 21.8957 13.6093 22.0811 12.7872L19.4561 17.1107Z" fill="#FFE300"/>
<path d="M15.694 1.70895C15.2161 1.70363 14.7384 1.70363 14.2609 1.70895C14.5079 1.7824 14.7559 1.85735 15.0046 1.93379C15.2352 1.85735 15.465 1.7824 15.694 1.70895ZM6.27509 2.27336C5.60338 2.3606 4.93051 2.45794 4.25646 2.56538C3.34649 2.71379 2.82196 3.41791 3.1443 4.13297C3.42085 4.75148 3.72715 5.38683 4.0558 6.03566C4.89341 5.7071 5.72602 5.38031 6.55362 5.05531C6.43171 4.11877 6.33886 3.19145 6.27509 2.27336ZM26.012 5.82215C26.2999 5.24768 26.5694 4.6835 26.8159 4.13273C27.1382 3.41791 26.6132 2.71387 25.7043 2.56538C25.0101 2.4548 24.3172 2.35498 23.6258 2.26594C23.5849 3.12318 23.519 3.98738 23.4281 4.85856C24.2839 5.17632 25.1452 5.49752 26.012 5.82215ZM13.6633 22.4906C13.8242 22.7774 13.9834 23.0641 14.1409 23.3506C14.6155 24.2164 15.3449 24.2164 15.8194 23.3506C15.9828 23.0527 16.1483 22.7548 16.316 22.457C15.8777 22.0655 15.4301 21.6662 14.9734 21.259C14.5276 21.6768 14.0909 22.0873 13.6633 22.4906Z" fill="#005BAA"/>
<path d="M23.4279 4.85852C23.5183 3.9874 23.5842 3.12319 23.6255 2.2659C20.9949 1.92461 18.3463 1.73865 15.6938 1.70898C15.4648 1.78255 15.235 1.8575 15.0044 1.93383C17.7262 2.77096 20.5437 3.78769 23.4279 4.85852ZM14.9731 21.2589C15.4289 21.6652 15.8765 22.0646 16.3158 22.4568C17.3179 20.6706 18.3853 18.8798 19.4562 17.1107L14.9731 21.2589Z" fill="#2484C6"/>
<path d="M6.5535 5.05536C5.72626 5.37913 4.89381 5.70584 4.05615 6.03547C5.21068 8.31459 6.65635 10.7673 8.19473 13.3101C7.47856 10.488 6.90217 7.7343 6.5535 5.05536ZM22.0809 12.7872C23.549 10.3523 24.9183 8.00542 26.0119 5.82219C25.1453 5.49858 24.284 5.17735 23.428 4.85852C23.161 7.44124 22.6892 10.0852 22.0809 12.7872Z" fill="#2484C6"/>
<path d="M15.0045 1.93383C14.7557 1.85728 14.5078 1.78234 14.2607 1.70898C11.5899 1.73905 8.92333 1.92752 6.2749 2.2734C6.33724 3.19144 6.43009 4.11875 6.55344 5.05535C9.44893 3.92173 12.2772 2.83638 15.0045 1.93383ZM10.7547 17.5258L13.6632 22.4907C14.0907 22.0875 14.5273 21.6769 14.9732 21.2589L10.7547 17.5258Z" fill="#2484C6"/>
<path d="M15.0047 1.93372C12.2774 2.83627 9.4492 3.92162 6.55371 5.05524C6.90238 7.73419 7.47877 10.4879 8.19494 13.31L10.7548 17.5257L14.9733 21.2588L19.4563 17.1106L22.0813 12.7871C22.6896 10.0848 23.1614 7.44137 23.4284 4.85841C20.544 3.78758 17.7265 2.77085 15.0047 1.93372Z" fill="#005BAA"/>
<path d="M10.7494 12.7581H9.95844C9.91168 12.7581 9.89461 12.7156 9.87322 12.673L9.32756 11.6244C9.26277 11.6244 9.21585 11.6244 9.08293 11.62V12.6728C9.08269 12.6956 9.07346 12.7173 9.05725 12.7332C9.04104 12.7492 9.01917 12.758 8.99644 12.7579H8.30069C8.27755 12.7582 8.25521 12.7495 8.23837 12.7336C8.22154 12.7177 8.21152 12.696 8.21045 12.6728V9.86217C8.21045 9.656 8.27915 9.60876 8.45971 9.57844C8.76059 9.54274 9.06326 9.5241 9.36625 9.52259C10.1652 9.52259 10.7112 9.77608 10.7112 10.5621V10.6308C10.7112 11.091 10.4571 11.3615 10.1868 11.4778L10.8098 12.6466C10.8178 12.6611 10.8223 12.6773 10.8228 12.6938C10.8226 12.703 10.8205 12.712 10.8166 12.7204C10.8128 12.7287 10.8072 12.7361 10.8003 12.7421C10.7934 12.7482 10.7853 12.7527 10.7766 12.7555C10.7678 12.7582 10.7586 12.7591 10.7494 12.7581ZM9.84274 10.5627C9.84274 10.3608 9.70112 10.2582 9.41333 10.2582C9.38309 10.2582 9.20676 10.2582 9.08253 10.2662V10.9497C9.10383 10.954 9.37016 10.954 9.39625 10.954C9.72697 10.954 9.84306 10.8378 9.84306 10.6356L9.84274 10.5627ZM13.0956 12.7458C12.8147 12.782 12.5317 12.7991 12.2485 12.7968C11.6985 12.7968 11.1486 12.6683 11.1486 11.8349V10.4851C11.1486 9.656 11.6985 9.52299 12.2485 9.52299C12.5317 9.52068 12.8147 9.53782 13.0956 9.57429C13.1515 9.58299 13.1808 9.60876 13.1808 9.6607V10.1848C13.1808 10.196 13.1786 10.2071 13.1743 10.2174C13.1701 10.2278 13.1638 10.2372 13.1559 10.2451C13.148 10.253 13.1386 10.2593 13.1282 10.2635C13.1179 10.2678 13.1068 10.27 13.0956 10.27H12.227C12.0729 10.27 12.0213 10.3178 12.0213 10.4854V10.7989H13.0781C13.1009 10.7991 13.1227 10.8082 13.1388 10.8244C13.1549 10.8405 13.164 10.8623 13.1641 10.8851V11.3919C13.164 11.4148 13.155 11.4366 13.1389 11.4528C13.1228 11.469 13.101 11.4782 13.0781 11.4784H12.0213V11.8351C12.0213 12.0027 12.0729 12.0499 12.227 12.0499H13.0956C13.1068 12.0499 13.1179 12.052 13.1282 12.0563C13.1385 12.0605 13.1479 12.0668 13.1559 12.0747C13.1638 12.0826 13.1701 12.0919 13.1743 12.1023C13.1786 12.1126 13.1808 12.1237 13.1808 12.1348V12.659C13.1808 12.7107 13.1511 12.7367 13.0956 12.7458ZM15.536 12.7199C15.3404 12.7751 15.1378 12.801 14.9346 12.7968C14.1439 12.7968 13.6102 12.3672 13.6102 11.3836V10.9405C13.6102 9.95663 14.1436 9.52706 14.9346 9.52706C15.1378 9.52283 15.3404 9.54877 15.536 9.60406C15.6046 9.62568 15.6305 9.63956 15.6305 9.69892V10.2487C15.6305 10.3093 15.6128 10.3391 15.5399 10.3312C15.3404 10.3067 15.1397 10.2934 14.9388 10.2913C14.7063 10.2913 14.4956 10.395 14.4956 10.9401V11.3832C14.4956 11.9241 14.7022 12.0318 14.9388 12.0318C15.1398 12.0312 15.3405 12.0181 15.5399 11.9927C15.6169 11.9847 15.6305 12.0234 15.6305 12.0751V12.625C15.6308 12.6803 15.6046 12.6982 15.536 12.7199ZM16.8634 12.7581H16.1587C16.136 12.7582 16.1142 12.7493 16.098 12.7333C16.0818 12.7174 16.0726 12.6957 16.0723 12.673V9.64746C16.0725 9.6364 16.0749 9.62548 16.0794 9.61536C16.0838 9.60524 16.0903 9.59611 16.0983 9.58853C16.1064 9.58094 16.1159 9.57505 16.1263 9.57119C16.1366 9.56733 16.1477 9.56559 16.1587 9.56608H16.8634C16.8744 9.5656 16.8854 9.56735 16.8958 9.57122C16.9061 9.57509 16.9155 9.581 16.9235 9.58859C16.9316 9.59618 16.9379 9.60531 16.9423 9.61542C16.9468 9.62553 16.9491 9.63643 16.9492 9.64746V12.673C16.9491 12.6956 16.94 12.7173 16.9239 12.7333C16.9078 12.7492 16.8861 12.7581 16.8634 12.7581ZM19.4072 10.2745H18.5393C18.3841 10.2745 18.3326 10.3217 18.3326 10.4895V10.7986H19.3896C19.4124 10.7988 19.4343 10.8079 19.4505 10.824C19.4666 10.8402 19.4758 10.862 19.476 10.8849V11.3917C19.4758 11.4146 19.4667 11.4365 19.4505 11.4526C19.4343 11.4688 19.4124 11.478 19.3896 11.4782H18.3326V12.6728C18.3325 12.6955 18.3235 12.7171 18.3074 12.7331C18.2914 12.749 18.2697 12.7579 18.2471 12.7579H17.5462C17.535 12.7579 17.5239 12.7558 17.5136 12.7515C17.5032 12.7473 17.4938 12.741 17.4858 12.7331C17.4779 12.7252 17.4715 12.7158 17.4672 12.7055C17.4629 12.6951 17.4607 12.684 17.4606 12.6728V10.4895C17.4606 9.6607 18.0112 9.52706 18.5604 9.52706C18.8435 9.52491 19.1264 9.54208 19.4072 9.57844C19.4631 9.5877 19.4931 9.61355 19.4931 9.66485V10.1889C19.4931 10.2002 19.4908 10.2113 19.4865 10.2217C19.4822 10.2321 19.4759 10.2416 19.4679 10.2495C19.4599 10.2575 19.4505 10.2638 19.44 10.2681C19.4296 10.2724 19.4185 10.2746 19.4072 10.2745ZM21.9207 12.7458C21.6399 12.782 21.3571 12.7991 21.074 12.7968C20.5241 12.7968 19.9741 12.6683 19.9741 11.8349V10.4851C19.9741 9.656 20.5241 9.52299 21.074 9.52299C21.3571 9.52071 21.64 9.53786 21.9207 9.57429C21.9765 9.58299 22.0064 9.60876 22.0064 9.6607V10.1848C22.0063 10.2075 21.9972 10.2292 21.9811 10.2451C21.9651 10.2611 21.9433 10.27 21.9207 10.27H21.053C20.8977 10.27 20.8462 10.3178 20.8462 10.4854V10.7989H21.9032C21.926 10.799 21.9479 10.8082 21.964 10.8243C21.9801 10.8404 21.9892 10.8623 21.9894 10.8851V11.3919C21.9893 11.4148 21.9802 11.4367 21.964 11.4529C21.9479 11.469 21.926 11.4782 21.9032 11.4784H20.8462V11.8351C20.8462 12.0027 20.8977 12.0499 21.053 12.0499H21.9207C21.9433 12.0498 21.965 12.0587 21.9811 12.0746C21.9972 12.0906 22.0063 12.1122 22.0064 12.1348V12.659C22.0064 12.7107 21.9764 12.7367 21.9207 12.7458ZM9.15641 8.76134C8.80622 8.76134 8.21923 8.60863 8.21923 7.58847V7.11772C8.21923 6.09644 8.80622 5.94429 9.15641 5.94429C9.35999 5.94303 9.56345 5.95457 9.76559 5.97883L9.78091 5.98059C9.81309 5.98225 9.84352 5.99575 9.86635 6.01849C9.88917 6.04123 9.90279 6.07161 9.90458 6.10378V6.14687C9.90552 6.16154 9.90326 6.17625 9.89794 6.18996C9.89263 6.20367 9.8844 6.21607 9.87382 6.22628C9.86323 6.23649 9.85055 6.24427 9.83666 6.24909C9.82276 6.25391 9.80799 6.25565 9.79335 6.25418C9.78482 6.25414 9.77629 6.25358 9.76782 6.25251C9.64814 6.2395 9.38021 6.22107 9.15641 6.22107C8.72859 6.22107 8.50215 6.53088 8.50215 7.11772V7.58847C8.50215 8.17506 8.72827 8.48504 9.15641 8.48504C9.38045 8.48504 9.6483 8.46637 9.76687 8.45312C9.77575 8.45225 9.78467 8.45185 9.79359 8.45193C9.80818 8.45041 9.82292 8.45209 9.83678 8.45686C9.85065 8.46163 9.86331 8.46936 9.87388 8.47953C9.88445 8.48969 9.89267 8.50204 9.89797 8.51571C9.90327 8.52939 9.90553 8.54405 9.90458 8.55868V8.60137C9.90306 8.63374 9.88949 8.66438 9.86653 8.68726C9.84357 8.71015 9.81289 8.72362 9.78051 8.72504L9.76559 8.72679C9.56344 8.75095 9.35999 8.76249 9.15641 8.76134ZM11.0238 8.76134C10.6594 8.76134 10.0479 8.60719 10.0479 7.57418V7.13216C10.0479 6.09876 10.6594 5.94429 11.0238 5.94429C11.3881 5.94429 12.0004 6.09876 12.0004 7.13216V7.57418C12.0004 8.60719 11.3889 8.76134 11.0238 8.76134ZM11.0238 6.22107C10.5578 6.22107 10.3312 6.51884 10.3312 7.13216V7.57418C10.3312 8.18735 10.5578 8.48504 11.0238 8.48504C11.4897 8.48504 11.717 8.18735 11.717 7.57418V7.13216C11.717 6.51868 11.4908 6.22107 11.0238 6.22107ZM14.0659 8.76134C14.0096 8.76818 13.9526 8.75468 13.9054 8.72328C13.8714 8.69445 13.8434 8.65921 13.8231 8.61956L12.6946 6.35814V8.60863C12.6956 8.64241 12.6832 8.67521 12.66 8.69985C12.6369 8.72448 12.6049 8.73893 12.5712 8.74004H12.535C12.5012 8.73897 12.4692 8.72454 12.446 8.6999C12.4229 8.67526 12.4104 8.64244 12.4114 8.60863V6.18309C12.4125 6.12752 12.4325 6.07397 12.4682 6.03139C12.5039 5.98881 12.5532 5.95975 12.6077 5.94908C12.6623 5.9384 12.7188 5.94675 12.768 5.97272C12.8171 5.99869 12.8559 6.04073 12.8778 6.09181L14.0028 8.34812V6.09373C14.0017 6.07714 14.004 6.06049 14.0095 6.0448C14.015 6.0291 14.0236 6.01468 14.0348 6.0024C14.046 5.99011 14.0596 5.98021 14.0747 5.9733C14.0898 5.96639 14.1062 5.9626 14.1228 5.96216H14.1654C14.1823 5.96226 14.1991 5.96578 14.2146 5.97252C14.2301 5.97925 14.2441 5.98906 14.2558 6.00136C14.2674 6.01365 14.2764 6.02817 14.2823 6.04405C14.2882 6.05992 14.2908 6.07682 14.2899 6.09373V8.51615C14.2924 8.54719 14.2884 8.5784 14.2783 8.60783C14.2681 8.63727 14.2521 8.66432 14.2311 8.6873C14.2101 8.71029 14.1846 8.72871 14.1562 8.74145C14.1278 8.75418 14.097 8.76095 14.0659 8.76134ZM15.2294 8.74004C14.896 8.74004 14.7341 8.58844 14.7341 8.27727V6.42501C14.7341 6.11344 14.896 5.96224 15.2294 5.96224H16.1494C16.1662 5.96148 16.183 5.96411 16.1987 5.97C16.2145 5.97588 16.2289 5.98488 16.2411 5.99647C16.2533 6.00805 16.263 6.02198 16.2697 6.03742C16.2764 6.05286 16.2799 6.06949 16.28 6.08631V6.11527C16.2798 6.13188 16.2763 6.14828 16.2695 6.16345C16.2627 6.17861 16.2529 6.19223 16.2407 6.20345C16.2284 6.21467 16.214 6.22326 16.1983 6.22868C16.1826 6.2341 16.166 6.23623 16.1494 6.23495H15.2294C15.0672 6.23495 15.0174 6.2612 15.0174 6.42469V7.1466H16.1494C16.166 7.14532 16.1827 7.14747 16.1985 7.15293C16.2142 7.15839 16.2286 7.16703 16.2409 7.17832C16.2532 7.18961 16.263 7.20331 16.2697 7.21855C16.2764 7.23379 16.2799 7.25026 16.28 7.26692V7.30251C16.2799 7.31933 16.2764 7.33597 16.2697 7.35141C16.2631 7.36685 16.2533 7.38079 16.2411 7.39238C16.2289 7.40396 16.2145 7.41297 16.1988 7.41884C16.183 7.42472 16.1662 7.42735 16.1494 7.42658H15.0172V8.27695C15.0172 8.44052 15.067 8.46661 15.2292 8.46661H16.1494C16.166 8.46535 16.1827 8.46751 16.1984 8.47297C16.2141 8.47843 16.2285 8.48706 16.2408 8.49832C16.253 8.50959 16.2628 8.52326 16.2696 8.53847C16.2763 8.55369 16.2799 8.57012 16.28 8.58677V8.61533C16.2799 8.63217 16.2765 8.64883 16.2698 8.6643C16.2631 8.67977 16.2534 8.69374 16.2412 8.70535C16.229 8.71697 16.2146 8.726 16.1988 8.73191C16.183 8.73781 16.1662 8.74047 16.1494 8.73972L15.2294 8.74004ZM17.5387 8.76134C17.1892 8.76134 16.6012 8.60863 16.6012 7.58847V7.11772C16.6012 6.09644 17.1892 5.94429 17.5387 5.94429C17.7424 5.94302 17.946 5.95456 18.1482 5.97883L18.1642 5.98059C18.1963 5.98237 18.2266 5.99592 18.2493 6.01865C18.2721 6.04137 18.2856 6.07169 18.2874 6.10378V6.14687C18.2883 6.16153 18.2861 6.17622 18.2808 6.18992C18.2755 6.20362 18.2672 6.216 18.2567 6.22621C18.2461 6.23642 18.2334 6.24421 18.2196 6.24904C18.2057 6.25387 18.1909 6.25562 18.1763 6.25418C18.1677 6.25413 18.159 6.25357 18.1505 6.25251C17.9472 6.23272 17.7431 6.22223 17.5389 6.22107C17.1114 6.22107 16.8846 6.53088 16.8846 7.11772V7.58847C16.8846 8.17506 17.1111 8.48504 17.5389 8.48504C17.743 8.48391 17.9468 8.47326 18.1499 8.45312C18.1587 8.45225 18.1675 8.45185 18.1763 8.45193C18.1909 8.45041 18.2056 8.45209 18.2195 8.45686C18.2334 8.46163 18.2461 8.46936 18.2566 8.47953C18.2672 8.48969 18.2754 8.50204 18.2807 8.51571C18.2861 8.52938 18.2883 8.54404 18.2874 8.55868V8.60137C18.2859 8.63366 18.2724 8.66423 18.2496 8.6871C18.2267 8.70998 18.1962 8.7235 18.1639 8.72504L18.1485 8.72679C17.9461 8.75098 17.7424 8.76252 17.5387 8.76134ZM19.3324 8.74004C19.2985 8.73897 19.2665 8.72455 19.2432 8.69993C19.22 8.67531 19.2074 8.64248 19.2083 8.60863V6.23527H18.6159C18.5995 6.23691 18.5829 6.23511 18.5672 6.22999C18.5515 6.22487 18.537 6.21653 18.5247 6.20552C18.5124 6.1945 18.5025 6.18105 18.4957 6.166C18.4888 6.15096 18.4852 6.13466 18.485 6.11814V6.08623C18.4851 6.06938 18.4887 6.05274 18.4954 6.03729C18.5021 6.02184 18.5118 6.0079 18.5241 5.99632C18.5363 5.98473 18.5507 5.97574 18.5665 5.96987C18.5823 5.964 18.5991 5.96137 18.6159 5.96216H20.0807C20.0975 5.96133 20.1144 5.96392 20.1302 5.96977C20.146 5.97562 20.1605 5.98462 20.1727 5.99621C20.1849 6.00781 20.1947 6.02176 20.2014 6.03723C20.2081 6.0527 20.2116 6.06937 20.2117 6.08623V6.11814C20.2115 6.13468 20.2079 6.151 20.2011 6.16606C20.1943 6.18112 20.1844 6.19459 20.172 6.20561C20.1597 6.21663 20.1452 6.22496 20.1295 6.23007C20.1138 6.23517 20.0971 6.23695 20.0807 6.23527H19.4918V8.60863C19.4923 8.62539 19.4895 8.64209 19.4835 8.65777C19.4776 8.67345 19.4686 8.68781 19.4571 8.70001C19.4455 8.71221 19.4317 8.72203 19.4164 8.7289C19.4011 8.73577 19.3846 8.73955 19.3679 8.74004H19.3324ZM21.8363 8.75041C21.8093 8.75014 21.783 8.74094 21.7617 8.72423C21.7404 8.70752 21.7253 8.68424 21.7186 8.65802L21.4328 7.73727H20.4989L20.2196 8.65945C20.2115 8.6847 20.1959 8.7069 20.1749 8.72314C20.1539 8.73937 20.1285 8.74887 20.102 8.75041H20.0555C20.0375 8.75103 20.0196 8.74736 20.0033 8.73968C19.9871 8.73201 19.9728 8.72056 19.9619 8.70629C19.9495 8.68814 19.9415 8.66734 19.9385 8.64555C19.9355 8.62377 19.9377 8.60159 19.9448 8.58078L20.6765 6.16442C20.6933 6.10004 20.7314 6.04324 20.7846 6.00325C20.8377 5.96327 20.9029 5.94245 20.9694 5.94421C21.0349 5.94236 21.0991 5.96274 21.1515 6.00203C21.204 6.04132 21.2416 6.0972 21.2583 6.16059L21.9898 8.57966C21.9973 8.60059 21.9998 8.62299 21.997 8.64504C21.9942 8.66709 21.9863 8.68818 21.9739 8.70661C21.9627 8.72092 21.9483 8.73235 21.9318 8.73995C21.9153 8.74756 21.8972 8.75112 21.8791 8.75033L21.8363 8.75041ZM21.3554 7.4537L20.9907 6.23998C20.9828 6.21397 20.9761 6.21397 20.9694 6.21397C20.9648 6.21352 20.9601 6.2141 20.9558 6.21564C20.9519 6.22157 20.9492 6.22818 20.9478 6.23511L20.5794 7.4537H21.3554Z" fill="white"/>
</g>
<defs>
<clipPath id="clip0_36_1075">
<rect width="29.7591" height="24" fill="white" transform="translate(0.000488281)"/>
</clipPath>
</defs>
</svg>
