<svg width="64" height="64" viewBox="0 0 64 64" fill="none" xmlns="http://www.w3.org/2000/svg">
<circle opacity="0.4" cx="32" cy="32" r="32" fill="#FAE3EC"/>
<circle opacity="0.16" cx="32" cy="32.0001" r="24" fill="#E55B92"/>
<circle opacity="0.8" cx="32.3999" cy="32.0001" r="16" fill="#DD0064"/>
<mask id="mask0_1397_2841" style="mask-type:alpha" maskUnits="userSpaceOnUse" x="26" y="24" width="12" height="16">
<path d="M31.9999 24.0001C28.9039 24.0001 26.3999 26.5041 26.3999 29.6001C26.3999 33.8001 31.9999 40.0001 31.9999 40.0001C31.9999 40.0001 37.5999 33.8001 37.5999 29.6001C37.5999 26.5041 35.0959 24.0001 31.9999 24.0001ZM31.9999 31.6001C30.8959 31.6001 29.9999 30.7041 29.9999 29.6001C29.9999 28.4961 30.8959 27.6001 31.9999 27.6001C33.1039 27.6001 33.9999 28.4961 33.9999 29.6001C33.9999 30.7041 33.1039 31.6001 31.9999 31.6001Z" fill="#252525"/>
</mask>
<g mask="url(#mask0_1397_2841)">
<path d="M20.3999 20.0001H44.3999V44.0001H20.3999V20.0001Z" fill="white"/>
</g>
</svg>
