<svg width="40" height="32" viewBox="0 0 40 32" fill="none" xmlns="http://www.w3.org/2000/svg">
<mask id="mask0_1024_27995" style="mask-type:alpha" maskUnits="userSpaceOnUse" x="14" y="9" width="12" height="16">
<path d="M19.6 9C16.504 9 14 11.504 14 14.6C14 18.8 19.6 25 19.6 25C19.6 25 25.2 18.8 25.2 14.6C25.2 11.504 22.696 9 19.6 9ZM19.6 16.6C18.496 16.6 17.6 15.704 17.6 14.6C17.6 13.496 18.496 12.6 19.6 12.6C20.704 12.6 21.6 13.496 21.6 14.6C21.6 15.704 20.704 16.6 19.6 16.6Z" fill="#252525"/>
</mask>
<g mask="url(#mask0_1024_27995)">
<path d="M8 5H32V29H8V5Z" fill="#474747"/>
</g>
<path d="M8 1H32V-1H8V1ZM39 8V24H41V8H39ZM32 31H8V33H32V31ZM1 24V8H-1V24H1ZM8 31C4.13401 31 1 27.866 1 24H-1C-1 28.9706 3.02944 33 8 33V31ZM39 24C39 27.866 35.866 31 32 31V33C36.9706 33 41 28.9706 41 24H39ZM32 1C35.866 1 39 4.13401 39 8H41C41 3.02944 36.9706 -1 32 -1V1ZM8 -1C3.02944 -1 -1 3.02944 -1 8H1C1 4.13401 4.13401 1 8 1V-1Z" fill="#F1F1F1"/>
</svg>
