<svg width="40" height="32" viewBox="0 0 40 32" fill="none" xmlns="http://www.w3.org/2000/svg">
<path d="M0 8C0 3.58172 3.58172 0 8 0H32C36.4183 0 40 3.58172 40 8V24C40 28.4183 36.4183 32 32 32H8C3.58172 32 0 28.4183 0 24V8Z" fill="#00A19C"/>
<mask id="mask0_1024_28069" style="mask-type:alpha" maskUnits="userSpaceOnUse" x="14" y="9" width="12" height="16">
<path d="M19.6 9C16.504 9 14 11.504 14 14.6C14 18.8 19.6 25 19.6 25C19.6 25 25.2 18.8 25.2 14.6C25.2 11.504 22.696 9 19.6 9ZM19.6 16.6C18.496 16.6 17.6 15.704 17.6 14.6C17.6 13.496 18.496 12.6 19.6 12.6C20.704 12.6 21.6 13.496 21.6 14.6C21.6 15.704 20.704 16.6 19.6 16.6Z" fill="#252525"/>
</mask>
<g mask="url(#mask0_1024_28069)">
<path d="M8 5H32V29H8V5Z" fill="white"/>
</g>
</svg>
